<svg id="图层_1" data-name="图层 1" xmlns="http://www.w3.org/2000/svg" viewBox="0 0 500 154"><defs><style>.cls-1{fill:#5c6163;}</style></defs><path class="cls-1" d="M162.66,41.81l-22.18,70.38h-8L113.88,53.38,95.35,112.19h-8L65.2,41.81h7.59l18.72,59.12,18.62-59.12h7.59l18.62,59.12,18.73-59.12Z"/><path class="cls-1" d="M204.91,85.08l20.3-19.81h9.26L212.6,87.17l21.87,25h-9.26l-20.3-23v23h-7.39V41.81h7.39Z"/><path class="cls-1" d="M305.5,112.19H269.33V41.81h8.28v62.56H305.5Z"/><path class="cls-1" d="M327.22,51.05v8.87h-8.58V51.05Zm-.6,34.88v25.62h-7.39V67.21h7.39Z"/><path class="cls-1" d="M256.19,51.05v8.87h-8.57V51.05Zm-.59,34.88v25.62h-7.39V67.21h7.39Z"/><path class="cls-1" d="M184.37,51.05v8.87H175.8V51.05Zm-.59,34.88v25.62h-7.39V67.21h7.39Z"/><path class="cls-1" d="M384.7,77.46v34.09h-7.39V77.46a3.86,3.86,0,0,0-.79-2.42,3.52,3.52,0,0,0-2.95-1h-20.7a5.45,5.45,0,0,0-3.69,1.23,4.61,4.61,0,0,0-1.43,3.69v32.62h-7.39V67.21h7.39v4.92a3.39,3.39,0,0,1,.4-1.42,5.43,5.43,0,0,1,1.23-1.63,6.64,6.64,0,0,1,2.27-1.33,9.88,9.88,0,0,1,3.49-.54h18.43Q384.7,67.21,384.7,77.46Z"/><path class="cls-1" d="M405.24,85.08l20.3-19.81h9.26l-21.88,21.9,21.88,25h-9.26l-20.3-23v23h-7.39V41.81h7.39Z"/></svg>